<svg width="100" height="146" viewBox="0 0 100 146" fill="none" xmlns="http://www.w3.org/2000/svg">
<path d="M2.05078 145.508V138.672L41.1133 88.6719C45.1497 83.5938 49.1862 78.5156 53.2227 73.4375C57.2591 68.3594 60.612 63.3789 63.2812 58.4961C66.0156 53.5482 67.3828 48.7956 67.3828 44.2383C67.3828 41.0482 66.6667 38.2487 65.2344 35.8398C63.8672 33.3659 61.9141 31.4453 59.375 30.0781C56.8359 28.6458 53.8737 27.9297 50.4883 27.9297C46.8424 27.9297 43.6198 28.776 40.8203 30.4688C38.0208 32.0964 35.8398 34.4076 34.2773 37.4023C32.7799 40.332 32.0312 43.7826 32.0312 47.7539H0C0.130208 38.444 2.34375 30.2083 6.64062 23.0469C11.0026 15.8203 16.9922 10.1888 24.6094 6.15234C32.2266 2.05078 40.9831 0 50.8789 0C60.1237 0 68.3268 1.79036 75.4883 5.37109C82.7148 8.95182 88.3789 13.9323 92.4805 20.3125C96.6471 26.6276 98.7305 34.0169 98.7305 42.4805C98.7305 49.6419 97.2656 56.2826 94.3359 62.4023C91.4062 68.457 87.5977 74.4792 82.9102 80.4688C78.2227 86.4583 73.1445 92.8385 67.6758 99.6094L53.5156 117.188V117.969L72.4609 117.578H99.4141V145.508H2.05078Z" fill="#F0F1F2"/>
</svg>
