<svg width="102" height="148" viewBox="0 0 102 148" fill="none" xmlns="http://www.w3.org/2000/svg">
<path d="M50.7812 147.07C41.276 147.07 32.6823 145.28 25 141.699C17.3828 138.118 11.3281 133.138 6.83594 126.758C2.34375 120.378 0.0651042 112.956 0 104.492L31.3477 104.395C31.3477 107.91 32.3568 110.905 34.375 113.379C36.3932 115.788 38.9648 117.611 42.0898 118.848C45.2148 120.085 48.4049 120.703 51.6602 120.703C55.3711 120.638 58.6589 119.824 61.5234 118.262C64.388 116.634 66.6016 114.486 68.1641 111.816C69.7917 109.082 70.6055 105.957 70.6055 102.441C70.6055 98.9909 69.7591 95.8984 68.0664 93.1641C66.3737 90.4297 63.737 88.2487 60.1562 86.6211C56.6406 84.9935 52.1159 84.1797 46.582 84.1797H38.1836V60.2539H47.3633C51.4648 60.2539 54.9479 59.5052 57.8125 58.0078C60.6771 56.4453 62.8581 54.2969 64.3555 51.5625C65.8529 48.8281 66.6341 45.7357 66.6992 42.2852C66.7643 38.9648 66.1458 36.1328 64.8438 33.7891C63.6068 31.3802 61.7839 29.5573 59.375 28.3203C57.0312 27.0182 54.2643 26.3672 51.0742 26.3672C47.819 26.3672 44.9544 26.9857 42.4805 28.2227C40.0065 29.3945 38.0534 31.0547 36.6211 33.2031C35.2539 35.3516 34.5703 37.8906 34.5703 40.8203H4.78516C4.65495 32.9427 6.57552 25.944 10.5469 19.8242C14.5833 13.6393 20.1172 8.78906 27.1484 5.27344C34.2448 1.75781 42.3828 0 51.5625 0C60.9375 0 69.043 1.79036 75.8789 5.37109C82.7148 8.88672 87.9883 13.6393 91.6992 19.6289C95.4102 25.6185 97.2656 32.194 97.2656 39.3555C97.2656 46.7773 95.3451 53.2878 91.5039 58.8867C87.7279 64.4206 82.487 68.7174 75.7812 71.7773C69.1406 74.8372 61.5234 76.3346 52.9297 76.2695V67.6758C62.5 67.4154 70.931 68.8477 78.2227 71.9727C85.5794 75.0326 91.3086 79.4271 95.4102 85.1562C99.5768 90.8854 101.66 97.6562 101.66 105.469C101.66 113.281 99.4466 120.345 95.0195 126.66C90.5924 132.975 84.5378 137.956 76.8555 141.602C69.2383 145.247 60.5469 147.07 50.7812 147.07Z" fill="#F0F1F2"/>
</svg>
