<svg width="64" height="64" viewBox="0 0 64 64" fill="none" xmlns="http://www.w3.org/2000/svg">
<rect width="64" height="64" rx="12" fill="#E9F2FE"/>
<path fill-rule="evenodd" clip-rule="evenodd" d="M12.0535 38.9877C12.0535 32.3421 12.0643 23.6427 12.0698 19.6125C12.0734 17.5659 13.2407 15.6957 15.0876 14.7849L29.6909 7.57768C31.2225 6.81988 33.0259 6.8253 34.5538 7.5885L48.9523 14.7831C50.7884 15.6993 51.9466 17.5659 51.9466 19.6071V38.9877C51.9466 43.0539 48.82 46.9257 44.8615 49.9749C39.4458 54.1455 32.6779 56.8563 32.6779 56.8563C32.2429 57.0309 31.7571 57.0309 31.3221 56.8563C31.3221 56.8563 24.5543 54.1455 19.1385 49.9749C15.18 46.9257 12.0535 43.0539 12.0535 38.9877ZM15.6785 38.9877C15.6785 42.0747 18.3537 44.8161 21.3607 47.1309C25.3953 50.2377 30.2401 52.4715 32.0018 53.2329C33.7581 52.4715 38.6048 50.2377 42.6394 47.1309C45.6463 44.8161 48.3216 42.0747 48.3216 38.9877V19.6071C48.3216 18.9267 47.9355 18.3039 47.3229 17.9979L32.9244 10.8051C32.4151 10.5495 31.8152 10.5495 31.304 10.8015L16.7007 18.0087C16.0863 18.3129 15.6966 18.9357 15.6948 19.6179C15.6893 23.6463 15.6785 32.3439 15.6785 38.9877ZM22.6439 33.0549C21.8899 32.4015 21.8102 31.2639 22.4681 30.5151C23.126 29.7663 24.2715 29.6871 25.0255 30.3405L30.0371 34.6767L38.8114 25.1709C39.4875 24.4383 40.6348 24.3897 41.3725 25.0611C42.1101 25.7325 42.1591 26.8719 41.483 27.6045L31.5143 38.4045C30.8509 39.1245 29.729 39.1857 28.9877 38.5449L22.6439 33.0549Z" fill="#357DE7"/>
</svg>
