<svg xmlns="http://www.w3.org/2000/svg" width="32" height="32" viewBox="0 0 32 32" fill="none">
  <rect width="32" height="32" fill="#1C2B42"/>
  <path d="M16.0001 2.6665C8.63608 2.6665 2.66675 8.63584 2.66675 15.9998C2.66675 22.6838 7.59075 28.2038 14.0067 29.1678V19.5332H10.7081V16.0278H14.0067V13.6958C14.0067 9.8345 15.8881 8.13984 19.0974 8.13984C20.6347 8.13984 21.4467 8.25317 21.8321 8.30517V11.3638H19.6427C18.2801 11.3638 17.8041 12.6558 17.8041 14.1118V16.0278H21.7974L21.2561 19.5332H17.8054V29.1958C24.3134 28.3145 29.3334 22.7492 29.3334 15.9998C29.3334 8.63584 23.3641 2.6665 16.0001 2.6665Z" fill="#A9BDDB"/>
</svg>