<svg width="64" height="64" viewBox="0 0 64 64" fill="none" xmlns="http://www.w3.org/2000/svg">
<rect width="64" height="64" rx="12" fill="#E9F2FE"/>
<path d="M41.5091 33.3315C41.8341 34.5831 42.6059 35.6736 43.6798 36.3988C44.7537 37.1239 46.056 37.4339 47.3428 37.2706C48.6295 37.1073 49.8124 36.4819 50.6697 35.5117C51.527 34.5415 52 33.293 52 32.0001C52 30.7072 51.527 29.4587 50.6697 28.4885C49.8124 27.5183 48.6295 26.8929 47.3428 26.7296C46.056 26.5663 44.7537 26.8763 43.6798 27.6014C42.6059 28.3265 41.8341 29.4171 41.5091 30.6687H34.6306V25.3681H37.377C37.9764 25.3694 38.5684 25.2358 39.1087 24.9773C39.6491 24.7187 40.124 24.342 40.4979 23.875L41.8087 22.2326C42.4906 22.5428 43.2312 22.704 43.9808 22.7054C45.0356 22.7054 46.0667 22.3935 46.9436 21.8091C47.8204 21.2248 48.5037 20.3943 48.9067 19.4227C49.3098 18.4511 49.4147 17.3822 49.208 16.3513C49.0013 15.3203 48.4924 14.3736 47.7456 13.6311C46.9989 12.8886 46.0479 12.3835 45.0131 12.1799C43.9782 11.9763 42.9061 12.0833 41.9323 12.4874C40.9585 12.8914 40.1268 13.5743 39.5426 14.4497C38.9584 15.325 38.6478 16.3535 38.6503 17.4048C38.6547 18.5485 39.0364 19.659 39.7364 20.5653L38.4131 22.2077C38.2931 22.3674 38.1363 22.496 37.956 22.5826C37.7757 22.6692 37.5771 22.7113 37.377 22.7054H34.6181V17.4048C34.4536 15.9454 33.7555 14.5976 32.657 13.6189C31.5586 12.6401 30.1368 12.099 28.6634 12.099C27.19 12.099 25.7683 12.6401 24.6698 13.6189C23.5714 14.5976 22.8732 15.9454 22.7087 17.4048C20.5908 17.4081 18.5606 18.2482 17.0629 19.7409C15.5653 21.2336 14.7225 23.2571 14.7192 25.3681C14.7068 25.5919 14.7068 25.8162 14.7192 26.04C13.7672 26.8729 13.0275 27.9195 12.5611 29.0934C12.0948 30.2673 11.9152 31.5349 12.0371 32.7916C12.159 34.0483 12.579 35.2582 13.2624 36.3212C13.9458 37.3843 14.8731 38.2702 15.9676 38.9058C16.0368 40.7417 16.7388 42.4978 17.9553 43.8781C19.1719 45.2583 20.8286 46.1785 22.6463 46.4834C22.7896 47.9728 23.4862 49.355 24.5995 50.3588C25.7128 51.3625 27.1623 51.9152 28.6634 51.9084C30.1375 51.8932 31.5563 51.3468 32.6577 50.3703C33.7591 49.3937 34.4687 48.0528 34.6556 46.5954V41.2948H37.377C37.5771 41.2889 37.7757 41.331 37.956 41.4176C38.1363 41.5042 38.2931 41.6328 38.4131 41.7925L39.7364 43.4349C39.0364 44.3411 38.6547 45.4517 38.6503 46.5954C38.6478 47.6467 38.9584 48.6751 39.5426 49.5505C40.1268 50.4259 40.9585 51.1088 41.9323 51.5128C42.9061 51.9169 43.9782 52.0239 45.0131 51.8203C46.0479 51.6167 46.9989 51.1116 47.7456 50.3691C48.4924 49.6265 49.0013 48.6799 49.208 47.6489C49.4147 46.6179 49.3098 45.549 48.9067 44.5775C48.5037 43.6059 47.8204 42.7754 46.9436 42.1911C46.0667 41.6067 45.0356 41.2948 43.9808 41.2948C43.2312 41.2962 42.4906 41.4574 41.8087 41.7676L40.4979 40.1376C40.1265 39.667 39.6524 39.2869 39.1117 39.026C38.5709 38.7652 37.9777 38.6304 37.377 38.632H34.6431V33.3315H41.5091ZM46.6398 29.3498C47.1657 29.3498 47.6798 29.5052 48.1171 29.7965C48.5544 30.0877 48.8952 30.5016 49.0964 30.9859C49.2977 31.4701 49.3503 32.003 49.2478 32.5171C49.1452 33.0312 48.8919 33.5035 48.52 33.8741C48.1482 34.2448 47.6744 34.4972 47.1586 34.5995C46.6428 34.7017 46.1081 34.6492 45.6223 34.4486C45.1364 34.248 44.7211 33.9084 44.4289 33.4725C44.1368 33.0367 43.9808 32.5243 43.9808 32.0001C43.9808 31.2972 44.261 30.6231 44.7596 30.126C45.2583 29.629 45.9346 29.3498 46.6398 29.3498ZM43.9808 14.7421C44.5097 14.7396 45.0274 14.8937 45.4684 15.1848C45.9094 15.4759 46.2537 15.8909 46.4578 16.3772C46.662 16.8635 46.7166 17.3993 46.615 17.9166C46.5133 18.434 46.2599 18.9096 45.8868 19.2832C45.5136 19.6568 45.0377 19.9117 44.5191 20.0154C44.0005 20.1192 43.4628 20.0672 42.9739 19.866C42.485 19.6649 42.067 19.3236 41.7729 18.8854C41.4788 18.4473 41.3218 17.932 41.3218 17.4048C41.3202 17.0557 41.3877 16.7098 41.5206 16.3868C41.6535 16.0638 41.8491 15.7702 42.0962 15.5227C42.3433 15.2753 42.6369 15.079 42.9604 14.945C43.2838 14.811 43.6306 14.7421 43.9808 14.7421ZM46.6398 46.5954C46.6398 47.1195 46.4839 47.6319 46.1917 48.0678C45.8995 48.5036 45.4843 48.8433 44.9984 49.0439C44.5125 49.2445 43.9779 49.297 43.4621 49.1947C42.9463 49.0925 42.4725 48.84 42.1006 48.4694C41.7287 48.0988 41.4755 47.6265 41.3729 47.1124C41.2703 46.5983 41.323 46.0654 41.5242 45.5811C41.7255 45.0969 42.0663 44.6829 42.5036 44.3917C42.9408 44.1005 43.4549 43.9451 43.9808 43.9451C44.686 43.9451 45.3624 44.2243 45.861 44.7213C46.3597 45.2183 46.6398 45.8925 46.6398 46.5954ZM28.6634 49.2581C27.7816 49.2548 26.937 48.9033 26.3146 48.2807C25.6922 47.658 25.3428 46.8148 25.3428 45.9359C25.3428 45.7741 25.3428 45.6124 25.3428 45.4631C25.3687 45.2739 25.3531 45.0813 25.2971 44.8987C25.2411 44.7161 25.1459 44.5478 25.0182 44.4054C24.8879 44.2602 24.7282 44.1441 24.5496 44.0647C24.371 43.9854 24.1776 43.9446 23.9821 43.9451C22.5683 43.9451 21.2125 43.3853 20.2128 42.3889C19.2132 41.3925 18.6516 40.0411 18.6516 38.632C18.6516 38.4827 18.6516 38.3459 18.6516 38.1965C18.672 37.9213 18.6061 37.6465 18.4629 37.4102C18.3198 37.1739 18.1065 36.9878 17.8526 36.8776C16.9839 36.507 16.2299 35.9124 15.6682 35.1549C15.1066 34.3975 14.7576 33.5045 14.6571 32.568C14.5567 31.6314 14.7084 30.6851 15.0967 29.8265C15.485 28.9678 16.0959 28.2277 16.8664 27.6825C17.0707 27.5323 17.2283 27.3276 17.321 27.0921C17.4138 26.8566 17.4379 26.5997 17.3907 26.3511C17.3302 26.027 17.3009 25.6978 17.3033 25.3681C17.3033 24.6673 17.4424 23.9733 17.7126 23.3263C17.9829 22.6792 18.3789 22.0919 18.8778 21.598C19.3768 21.1041 19.9688 20.7136 20.6199 20.4488C21.2709 20.184 21.9681 20.0502 22.6713 20.0551C23.0486 20.0541 23.4251 20.0917 23.7948 20.1671C24.0143 20.2234 24.2447 20.2221 24.4635 20.1632C24.6822 20.1043 24.882 19.9899 25.0432 19.8311C25.2073 19.6728 25.3287 19.4758 25.3964 19.2583C25.464 19.0409 25.4756 18.81 25.4302 18.5869C25.4117 18.3924 25.4117 18.1966 25.4302 18.0021C25.4737 17.1997 25.8086 16.4405 26.3723 15.8661C26.9361 15.2917 27.6903 14.9414 28.4942 14.8804C29.2981 14.8195 30.0967 15.0521 30.7412 15.535C31.3856 16.0178 31.8318 16.7178 31.9965 17.5044V46.247C31.9132 47.0709 31.5262 47.8349 30.9106 48.391C30.295 48.9472 29.4943 49.2561 28.6634 49.2581Z" fill="#357DE7"/>
</svg>
