<svg width="64" height="64" viewBox="0 0 64 64" fill="none" xmlns="http://www.w3.org/2000/svg">
<rect width="64" height="64" rx="12" fill="#E9F2FE"/>
<path d="M39.8972 34.8046C39.4503 34.8104 39.0233 34.9896 38.7073 35.304C38.3912 35.6183 38.2111 36.043 38.2052 36.4875V45.4627C38.2052 46.8017 37.6704 48.0858 36.7185 49.0326C35.7666 49.9794 34.4755 50.5113 33.1292 50.5113H24.1053C22.759 50.5113 21.4679 49.9794 20.516 49.0326C19.5641 48.0858 19.0293 46.8017 19.0293 45.4627V18.5371C19.0293 17.1981 19.5641 15.914 20.516 14.9672C21.4679 14.0204 22.759 13.4885 24.1053 13.4885H37.6412C38.09 13.4885 38.5204 13.3112 38.8377 12.9956C39.155 12.68 39.3332 12.252 39.3332 11.8057C39.3332 11.3593 39.155 10.9313 38.8377 10.6157C38.5204 10.3001 38.09 10.1228 37.6412 10.1228H24.1053C21.8615 10.1228 19.7097 11.0093 18.1231 12.5873C16.5366 14.1653 15.6453 16.3055 15.6453 18.5371V45.4627C15.6453 47.6943 16.5366 49.8345 18.1231 51.4125C19.7097 52.9905 21.8615 53.877 24.1053 53.877H33.1292C35.373 53.877 37.5248 52.9905 39.1114 51.4125C40.6979 49.8345 41.5892 47.6943 41.5892 45.4627V36.4875C41.5834 36.043 41.4033 35.6183 41.0872 35.304C40.7711 34.9896 40.3442 34.8104 39.8972 34.8046Z" fill="#357DE7"/>
<path d="M47.9957 19.7487C47.8381 19.5468 47.6363 19.3833 47.4057 19.2705C47.1751 19.1578 46.9216 19.0988 46.6647 19.098H46.1007V16.2932C46.1007 15.8469 45.9224 15.4188 45.6051 15.1032C45.2878 14.7877 44.8574 14.6104 44.4087 14.6104C43.9599 14.6104 43.5295 14.7877 43.2122 15.1032C42.8949 15.4188 42.7167 15.8469 42.7167 16.2932V19.098H34.8207V16.2932C34.8207 15.8469 34.6424 15.4188 34.3251 15.1032C34.0078 14.7877 33.5774 14.6104 33.1287 14.6104C32.6799 14.6104 32.2496 14.7877 31.9322 15.1032C31.6149 15.4188 31.4367 15.8469 31.4367 16.2932V19.098H30.8727C30.6157 19.0988 30.3623 19.1578 30.1316 19.2705C29.901 19.3833 29.6992 19.5468 29.5416 19.7487C29.3861 19.9502 29.2771 20.1834 29.2225 20.4316C29.1679 20.6798 29.169 20.937 29.2258 21.1847L30.6245 26.7718C30.9651 28.1044 31.742 29.2864 32.8326 30.1314C33.9232 30.9764 35.2655 31.4364 36.648 31.4389H40.8893C42.2718 31.4364 43.6141 30.9764 44.7048 30.1314C45.7954 29.2864 46.5722 28.1044 46.9128 26.7718L48.3115 21.1847C48.3683 20.937 48.3694 20.6798 48.3148 20.4316C48.2602 20.1834 48.1513 19.9502 47.9957 19.7487ZM43.6191 25.9416C43.4681 26.5487 43.1175 27.0883 42.6229 27.4745C42.1283 27.8607 41.5181 28.0714 40.8893 28.0732H36.648C36.0192 28.0714 35.409 27.8607 34.9144 27.4745C34.4198 27.0883 34.0692 26.5487 33.9183 25.9416L33.1287 22.4637H44.4087L43.6191 25.9416Z" fill="#357DE7"/>
<path d="M26.3607 47.1455H30.8727C31.3214 47.1455 31.7518 46.9682 32.0691 46.6526C32.3864 46.337 32.5647 45.909 32.5647 45.4626C32.5647 45.0163 32.3864 44.5883 32.0691 44.2727C31.7518 43.9571 31.3214 43.7798 30.8727 43.7798H26.3607C25.912 43.7798 25.4816 43.9571 25.1643 44.2727C24.847 44.5883 24.6687 45.0163 24.6687 45.4626C24.6687 45.909 24.847 46.337 25.1643 46.6526C25.4816 46.9682 25.912 47.1455 26.3607 47.1455Z" fill="#357DE7"/>
</svg>
