<svg width="64" height="64" viewBox="0 0 64 64" fill="none" xmlns="http://www.w3.org/2000/svg">
<rect width="64" height="64" rx="12" fill="#E9F2FE"/>
<path d="M53.9883 30.4081C53.9785 29.9269 53.7527 29.4775 53.3756 29.1832C53.2499 28.9565 53.1066 28.7378 52.9515 28.531L46.589 22.1677C45.6994 21.3147 44.5152 20.8473 43.2899 20.8633H36.7072V19.2725C36.7072 16.6377 34.5962 14.5 31.9942 14.5H14.713C12.111 14.5 10 16.6377 10 19.2725V41.5439C10 44.1787 12.111 46.3164 14.713 46.3164H16.8339C17.7353 48.2592 19.6637 49.5 21.7826 49.5C23.9016 49.5 25.83 48.2592 26.7313 46.3164H38.8279C39.7293 48.2592 41.6577 49.5 43.7766 49.5C45.8955 49.5 47.8239 48.2592 48.7253 46.3164H49.2752C51.8772 46.3164 53.9882 44.1787 53.9882 41.5439V31.5215C54.0039 31.261 54.0039 31.0025 53.9882 30.742C53.9961 30.6307 53.9962 30.5195 53.9883 30.4081ZM43.2899 24.0449C43.6964 24.0508 44.0852 24.2159 44.3739 24.5062L48.757 28.8173H36.7072V24.0449L43.2899 24.0449ZM21.7829 46.3163C20.8305 46.3163 19.9703 45.7357 19.6051 44.8428C19.2418 43.952 19.4421 42.9259 20.1156 42.2418C20.7912 41.5598 21.8045 41.3569 22.6842 41.7248C23.566 42.0947 24.1394 42.9657 24.1394 43.9301C24.1394 45.2485 23.0848 46.3163 21.7829 46.3163ZM27.2817 43.1347C26.9223 40.3806 24.6051 38.3245 21.8618 38.3245C19.1185 38.3245 16.8014 40.3806 16.4419 43.1347H14.7138C13.8458 43.1347 13.1428 42.4228 13.1428 41.5439V19.2724C13.1428 18.3935 13.8458 17.6816 14.7138 17.6816H31.9949C32.4113 17.6816 32.8119 17.8486 33.1064 18.1469C33.401 18.4452 33.5659 18.8508 33.5659 19.2724V41.5439C33.5659 41.9654 33.401 42.3711 33.1064 42.6693C32.8118 42.9676 32.4112 43.1347 31.9949 43.1347L27.2817 43.1347ZM43.777 46.3163C42.8246 46.3163 41.9645 45.7357 41.5992 44.8428C41.2359 43.952 41.4362 42.9259 42.1098 42.2418C42.7853 41.5598 43.7986 41.3569 44.6784 41.7248C45.5601 42.0947 46.1335 42.9657 46.1335 43.9301C46.1335 45.2485 45.079 46.3163 43.777 46.3163ZM49.2758 43.1347C48.9164 40.3806 46.5992 38.3245 43.8559 38.3245C41.1127 38.3245 38.7955 40.3806 38.4361 43.1347H36.4252C36.6078 42.6236 36.704 42.0867 36.708 41.5439V31.999H50.8471V41.5439C50.8471 41.9654 50.6821 42.3711 50.3876 42.6694C50.093 42.9676 49.6921 43.1347 49.2758 43.1347Z" fill="#357DE7"/>
</svg>
