<svg xmlns="http://www.w3.org/2000/svg" width="32" height="32" viewBox="0 0 32 32" fill="none">
  <rect width="32" height="32" fill="#1C2B42"/>
  <path d="M7.57292 2.6665L9.54427 9.7915V13.2082H11.2526V9.7915L13.25 2.6665H11.5286L10.8125 5.90869C10.6112 6.85536 10.4831 7.52819 10.4245 7.92952H10.3724C10.2884 7.36819 10.1604 6.69034 9.98438 5.89567L9.29427 2.6665H7.57292ZM15.2422 5.35661C14.6635 5.35661 14.1971 5.46969 13.8411 5.70036C13.4851 5.92969 13.2227 6.29665 13.0547 6.79932C12.888 7.30198 12.8047 7.96738 12.8047 8.79671V9.9165C12.8047 10.7365 12.8768 11.3932 13.0234 11.8879C13.1701 12.3825 13.4176 12.7469 13.7656 12.9816C14.1136 13.2163 14.5925 13.3332 15.2031 13.3332C15.7978 13.3332 16.2705 13.2175 16.6172 12.9868C16.9639 12.7561 17.2151 12.3943 17.3698 11.8957C17.5245 11.397 17.6016 10.7378 17.6016 9.9165V8.79671C17.6016 7.96871 17.5233 7.3058 17.3646 6.80713C17.2059 6.3098 16.9534 5.94284 16.6094 5.70817C16.2654 5.4735 15.8115 5.35661 15.2422 5.35661ZM18.5052 5.50765V11.2603C18.5052 11.9723 18.6245 12.4959 18.8672 12.8306C19.1099 13.1652 19.4867 13.3332 19.9974 13.3332C20.7334 13.3332 21.2882 12.9775 21.6562 12.2655H21.6927L21.8438 13.2082H23.2005V5.50765H21.4688V11.6248C21.4021 11.7675 21.3001 11.8844 21.1615 11.9764C21.0228 12.0697 20.8798 12.1144 20.7292 12.1144C20.5532 12.1144 20.4276 12.0423 20.3516 11.8957C20.2756 11.749 20.237 11.5027 20.237 11.1587V5.50765H18.5052ZM15.2031 6.54932C15.4458 6.54932 15.6175 6.67613 15.7135 6.93213C15.8095 7.1868 15.8568 7.59234 15.8568 8.14567V10.5441C15.8568 11.1134 15.8095 11.5252 15.7135 11.7759C15.6175 12.0265 15.4471 12.1521 15.2057 12.1535C14.9631 12.1535 14.7951 12.0265 14.7031 11.7759C14.6098 11.5252 14.5651 11.1134 14.5651 10.5441V8.14567C14.5651 7.59367 14.6123 7.18813 14.7083 6.93213C14.8043 6.67746 14.9685 6.54932 15.2031 6.54932ZM6.66667 14.6665C5.2 14.6665 4 15.8665 4 17.3332V26.6665C4 28.1332 5.2 29.3332 6.66667 29.3332H25.3333C26.8 29.3332 28 28.1332 28 26.6665V17.3332C28 15.8665 26.8 14.6665 25.3333 14.6665H6.66667ZM16.0651 17.3332H17.474V20.7576H17.4844C17.611 20.5096 17.7927 20.3107 18.026 20.1587C18.2594 20.0067 18.5119 19.9321 18.7813 19.9321C19.1279 19.9321 19.399 20.0242 19.5964 20.2082C19.7937 20.3922 19.938 20.6895 20.026 21.0988C20.114 21.5095 20.1562 22.0791 20.1563 22.8071V23.8358H20.1589C20.1589 24.8051 20.0406 25.5152 19.8073 25.9712C19.574 26.4272 19.2108 26.6561 18.7161 26.6561C18.4401 26.6561 18.1902 26.5926 17.9635 26.466C17.7369 26.3393 17.5665 26.1651 17.4531 25.9451H17.4219L17.2734 26.5597H16.0651V17.3332ZM7.3151 17.6613H11.651V18.841H10.1979V26.5597H8.76823V18.841H7.3151V17.6613ZM22.7969 19.9347C23.2982 19.9347 23.6838 20.0268 23.9531 20.2108C24.2211 20.3948 24.4102 20.6821 24.5208 21.0701C24.6302 21.4595 24.6849 21.9968 24.6849 22.6821V23.7967H22.237V24.1274C22.237 24.5448 22.2481 24.8569 22.2734 25.0649C22.2988 25.2729 22.3498 25.426 22.4271 25.5207C22.5044 25.6167 22.6238 25.6639 22.7865 25.6639C23.0051 25.6639 23.1556 25.578 23.237 25.4087C23.3183 25.2394 23.3631 24.9583 23.3698 24.5623L24.6328 24.6353C24.6395 24.6913 24.6432 24.771 24.6432 24.8696C24.6432 25.471 24.4778 25.92 24.1484 26.216C23.8191 26.5133 23.3565 26.6613 22.7552 26.6613C22.0339 26.6613 21.5276 26.4336 21.237 25.9816C20.9463 25.5296 20.8021 24.8306 20.8021 23.8826V22.7472C20.8021 21.7712 20.9526 21.0585 21.2526 20.6092C21.5526 20.1599 22.0689 19.9347 22.7969 19.9347ZM11.2135 20.0597H12.6797V24.8332C12.6797 25.1225 12.712 25.3303 12.776 25.453C12.84 25.577 12.9444 25.6379 13.0938 25.6379C13.2204 25.6379 13.3449 25.5993 13.4609 25.5207C13.5783 25.4433 13.6614 25.3438 13.7187 25.2238V20.0597H15.1849V26.5597H15.1823H14.0365L13.9115 25.7629H13.8776C13.5656 26.3655 13.0992 26.6665 12.4766 26.6665C12.0446 26.6665 11.7288 26.5247 11.5234 26.242C11.3181 25.9594 11.2135 25.5165 11.2135 24.9165V20.0597ZM22.7656 20.9243C22.6096 20.9243 22.4939 20.9717 22.4193 21.0623C22.3446 21.1543 22.2948 21.3049 22.2708 21.5129C22.2455 21.7209 22.2344 22.0368 22.2344 22.4608V22.9269H23.3047V22.4608C23.3047 22.0434 23.291 21.7289 23.263 21.5129C23.2364 21.2969 23.184 21.1451 23.1094 21.0571C23.0347 20.9691 22.9216 20.9243 22.7656 20.9243ZM18.1224 20.9712C17.9811 20.9712 17.8518 21.0271 17.7318 21.1405C17.6118 21.2538 17.5259 21.3994 17.4766 21.5754V25.2655C17.5406 25.3788 17.6239 25.4633 17.7266 25.5207C17.8292 25.5767 17.9386 25.6066 18.0599 25.6066C18.2159 25.6066 18.3377 25.5507 18.4297 25.4373C18.5217 25.324 18.5889 25.1338 18.6276 24.8644C18.6663 24.5964 18.6849 24.2232 18.6849 23.7498V22.9139C18.6849 22.4046 18.67 22.0128 18.638 21.7368C18.606 21.4608 18.5487 21.2617 18.4687 21.1457C18.3874 21.0297 18.2717 20.9712 18.1224 20.9712Z" fill="#A9BDDB"/>
</svg>