<svg width="2006" height="1766" viewBox="0 0 2006 1766" fill="none" xmlns="http://www.w3.org/2000/svg">
<rect width="2006" height="1766" fill="white"/>
<path d="M1722.41 163V401.554L1643.61 322.756V163H1642.17L1642.41 163.246V321.55L1563.61 242.752V163H1562.41V242.752L1483.62 321.55V163H1002.41V242.752L923.613 321.55V163H922.167L843.615 241.552V163H842.415V242.752L763.616 321.55V163H283V403.6H521.556L442.757 482.398H283V483.844L283.246 483.598H441.551L362.753 562.396H283V563.596H362.753L441.551 642.394H283V643.594H441.551L362.753 722.392H283V723.592H361.553L283 802.15V803.596H441.551L362.753 882.394H283V1602.99H763.604V1444.44L842.403 1523.24V1602.99H843.603V1523.24L922.401 1444.44V1602.75L922.155 1602.99H923.601V1443.24L1002.4 1364.45V1603H1483.6V1523.25L1483.85 1523L1483.6 1522.76V1444.45L1562.4 1523.25V1603H1563.6V1524.45L1642.16 1603H1643.6V1444.45L1722.4 1523.25V1603H1723V882.4H1484.44L1563.24 803.602H1722.99V802.156L1722.75 802.402H1564.44L1643.24 723.604H1722.99V722.404H1643.24L1564.44 643.606H1722.99V642.406H1564.44L1643.24 563.608H1722.99V562.408H1644.44L1722.99 483.856V482.41H1564.44L1643.24 403.612H1722.99V163H1722.39H1722.41ZM1563.01 243.85L1642.41 323.248V402.4H1483.6V323.248L1563 243.85H1563.01ZM1643.61 324.448L1721.56 402.4H1643.61V324.448ZM1163.26 1522.4L1084.46 1443.6H1242.76L1321.56 1522.4H1163.26ZM844.455 1362.4L923.253 1283.6H1082.76L1161.56 1362.4H844.455ZM682.753 1522.4H524.448L603.247 1443.6H761.552L682.753 1522.4ZM363.599 1043.25L442.397 964.45V1122.75L363.599 1201.55V1043.25ZM521.55 883.6L443.597 961.552V883.6H521.55ZM523.602 722.752V563.248L602.401 484.45V802.756L523.602 881.554V723.25L523.848 723.004L523.602 722.758V722.752ZM761.558 322.402H603.253L524.454 243.604H682.759L761.558 322.402ZM1083.26 243.604H1241.56L1162.76 322.402H1004.46L1083.26 243.604ZM1482.76 963.604L1561.56 1042.4H1403.26L1324.46 963.604H1482.76ZM1402.17 1043L1322.77 1122.4H1243.61V963.598H1322.77L1402.17 1043V1043ZM1482.42 1443.25V1521.56L1324.46 1363.61H1482.42V1442.76L1482.17 1443L1482.42 1443.25ZM1163.26 1362.4L1083.86 1283L1163.26 1203.6H1242.41V1362.41H1163.26V1362.4ZM1082.76 1282.4H924.459L1003.26 1203.6H1161.56L1082.76 1282.4ZM443.255 1442.4L364.457 1363.61H681.559L602.761 1442.4H443.255ZM522.408 1204.45V1362.4H364.457L522.408 1204.45ZM1003.61 324.448L1081.56 402.4H1003.61V324.448ZM1322.76 323.602L1401.56 402.4H1084.46L1163.26 323.602H1322.76ZM1482.41 563.248V722.752L1403.61 801.55V483.244L1482.41 404.446V562.75L1482.16 562.996L1482.41 563.242V563.248ZM1164.46 1202.4L1242.41 1124.45V1202.4H1164.46ZM844.455 1202.4L923.253 1123.6H1003.61H1241.56L1162.76 1202.4H844.455ZM683.605 1362.4V1284.45L761.558 1362.4H683.605ZM762.404 1363.6V1441.55L684.451 1363.6H762.404ZM682.405 1362.4H523.602V1283.25L603.001 1203.85L682.399 1283.25V1362.4H682.405ZM683.605 563.248L762.404 484.45V642.4V801.55L683.605 722.752V563.248ZM843.009 403.846L843.255 403.6H1082.76L1161.56 482.398H843.249L764.45 403.6H842.757L843.003 403.846H843.009ZM1323.61 881.548V723.244L1402.41 644.446V802.75L1323.61 881.548ZM602.407 1202.75L523.608 1281.54V964.438L602.407 1043.24V1202.74V1202.75ZM601.561 883.594L523.608 961.546V883.594H601.561ZM523.86 962.992L602.413 884.44V1041.54L523.86 962.992ZM763.616 882.394V724.444L842.415 803.242V962.746L763.616 1041.54V882.394ZM841.569 482.392H763.616V404.44L841.569 482.392ZM763.616 483.592H842.769L922.167 562.99L842.769 642.388H763.616V483.586V483.592ZM1322.42 722.746L1243.62 801.544V563.242L1243.87 562.996L1243.62 562.75V484.444L1322.42 563.242V722.746ZM1322.42 881.548L1243.87 802.996L1322.42 724.444V881.548ZM1242.42 1121.55L1163.62 1042.75V724.444L1242.17 802.996L1242.42 803.242V882.394V1121.54V1121.55ZM923.265 563.596H1082.77L1161.57 642.394H1083.27L1083.02 642.148L1082.78 642.394H1002.42H844.473L923.271 563.596H923.265ZM1162.42 881.548L1083.62 802.75V644.446L1162.42 723.244V881.548ZM923.619 723.244L1002.42 644.446V722.746L1002.17 722.992L1002.42 723.238V882.988V962.74L923.619 1041.54V723.232V723.244ZM1001.57 643.594L923.619 721.546V643.594H1001.57ZM1002.42 964.444V1122.39H844.467L1002.42 964.444ZM1003.62 643.594H1081.57L1003.62 721.546V643.594ZM1082.42 644.44V801.544L1003.86 722.992L1082.42 644.44ZM1084.47 643.594H1162.77L1163.02 643.84L1163.26 643.594H1242.41V801.544L1084.46 643.594H1084.47ZM1164.47 642.394L1242.42 564.442V642.394H1164.47ZM1163.02 642.148L1084.46 563.596H1241.57L1163.02 642.148ZM922.413 643.594V722.746L843.015 802.144L763.616 722.746V643.594H922.419H922.413ZM843.615 803.242L922.413 724.444V882.748L843.615 961.546V803.242ZM922.413 884.44V1042.74L843.615 1121.54V963.238L922.413 884.44ZM842.415 1121.54L763.862 1042.99L842.415 964.438V1121.54ZM841.569 1122.39H763.616V1044.44L841.569 1122.39ZM1003.62 882.988V724.438L1082.42 803.236V962.74L1003.62 1041.54V882.988ZM1083.62 804.436L1162.42 883.234V1041.54L1083.62 962.74V804.436ZM1242.42 403.588V561.538L1084.47 403.588H1242.42ZM1241.57 562.39H1083.27L1004.47 483.592H1162.78L1241.57 562.39ZM1002.77 483.592L1081.57 562.39H923.265L844.467 483.592H1002.77ZM1003.62 1043.24L1083.02 963.844L1162.42 1043.24V1122.39H1003.61V1043.24H1003.62ZM1163.62 1044.44L1241.57 1122.39H1163.62V1044.44ZM1243.62 804.442L1321.57 882.394H1243.62V804.442ZM1402.42 642.742L1323.62 721.54V563.236L1402.42 484.438V642.742ZM1323.02 562.144L1243.63 482.746V403.594H1402.43V482.746L1323.03 562.144H1323.02ZM762.422 481.546L684.469 403.594H762.422V481.546ZM683.623 404.446L762.176 482.998L683.623 561.55V404.446ZM603.625 1202.75V1044.44L682.423 1123.24V1281.54L603.625 1202.75ZM682.423 1121.55L603.625 1042.75V884.446L682.423 963.244V1121.55ZM604.471 883.594H762.422V1041.54L604.471 883.594ZM842.775 1123.59L843.021 1123.84L843.267 1123.59H921.567L763.616 1281.54V1123.59H842.769H842.775ZM1324.48 882.394L1482.43 724.444V882.394H1324.48ZM1403.63 481.546V403.594H1481.58L1403.63 481.546ZM1083.03 402.148L1004.48 323.596H1161.58L1083.03 402.148ZM684.475 402.394L762.428 324.442V402.394H684.475ZM683.029 402.148L604.477 323.596H761.582L683.029 402.148ZM681.583 403.594L523.632 561.544V403.594H681.583ZM682.429 404.44V562.744L603.631 641.542V483.238L682.429 404.44ZM603.631 643.24L682.429 564.442V722.746L603.631 801.544V643.24ZM683.029 723.838L762.428 803.236V882.388H603.625V803.236L683.023 723.838H683.029ZM602.431 882.388H524.478L602.431 804.436V882.388ZM683.029 1363.83L761.582 1442.39H604.477L683.029 1363.83ZM683.629 1282.74V964.438L762.182 1042.99L762.428 1043.24V1123.59V1282.74L762.182 1282.98L762.428 1283.23V1361.54L683.629 1282.74ZM764.48 1282.38L843.279 1203.59H1001.58L922.785 1282.38H764.48ZM921.585 1283.58L843.033 1362.14L764.48 1283.58H921.585ZM1243.64 1362.38V1204.43L1401.59 1362.38H1243.64ZM1244.48 1203.58H1402.79L1481.59 1282.38H1323.28L1244.48 1203.58ZM1244.48 1202.38L1323.04 1123.83L1401.59 1202.38H1244.48ZM1243.64 1201.53V1123.58H1321.59L1243.64 1201.53ZM1243.64 962.38V884.428L1321.59 962.38H1243.64ZM1482.41 242.398H1404.46L1482.41 164.446V242.398ZM1482.41 243.598V402.4H1403.26L1323.86 323.002L1403.26 243.604H1482.41V243.598ZM1322.76 322.396H1164.46L1243.25 243.598H1401.56L1322.76 322.396ZM763.604 402.394V324.442L841.557 402.394H763.604ZM522.756 243.598L601.555 322.396H443.249L364.451 243.598H522.756ZM443.249 323.596H602.755L681.553 402.394H364.451L443.249 323.596ZM522.402 884.446V962.752L522.156 962.998L522.402 963.244V1202.75L443.603 1281.54V963.238L522.402 884.44V884.446ZM442.403 1124.45V1282.75L363.605 1361.55V1203.24L442.403 1124.45ZM362.405 1361.55L283.846 1283L362.399 1204.45V1361.55L362.405 1361.55ZM442.157 1443L362.759 1522.4H283.6V1363.59H362.753L442.151 1442.99L442.157 1443ZM443.255 1443.6H601.561L522.762 1522.4H364.451L443.249 1443.6H443.255ZM763.61 1284.45L841.563 1362.4H763.61V1284.45ZM1003.61 1364.45L1081.56 1442.4H1003.61V1364.45ZM1004.46 1363.6H1242.41H1322.77L1401.57 1442.4H1083.26L1004.46 1363.6H1004.46ZM1244.46 1443.6H1402.77L1481.56 1522.4H1323.26L1244.46 1443.6ZM1481.56 1523.6L1403.01 1602.15L1324.46 1523.6H1481.56ZM1563.26 1362.39L1563.01 1362.15L1562.77 1362.39H1403.26L1324.46 1283.6H1642.77L1721.57 1362.39H1563.27H1563.26ZM1483.26 1282.4L1404.46 1203.6H1562.77L1641.57 1282.4H1483.26ZM1562.77 1202.4H1403.26L1324.46 1123.6H1641.57L1562.77 1202.4ZM1324.46 1122.4L1403.26 1043.6H1562.77L1641.57 1122.4H1324.46H1324.46ZM1564.47 1043.6H1721.57L1643.02 1122.15L1564.47 1043.6ZM1563.27 1042.4L1484.47 963.604H1642.77L1721.57 1042.4H1563.27ZM1323.26 962.404L1244.47 883.606H1322.77L1323.02 883.852L1323.26 883.606H1562.77L1641.57 962.404H1323.26ZM1402.77 242.404H1084.46L1163.26 163.6H1481.56L1402.77 242.398L1402.77 242.404ZM1161.56 163.6L1003.61 321.55V163.6H1161.56ZM1002.41 322.75L1002.16 322.996L1002.41 323.242V402.394H844.455L1002.41 244.444V322.75ZM922.407 164.446V322.75L843.609 401.548V243.25L922.407 164.446ZM842.409 244.444V401.548L763.856 322.996L842.409 244.444ZM762.404 163.6V321.55L604.453 163.6H762.404ZM602.755 163.6L681.553 242.398H363.251L284.446 163.6H602.749H602.755ZM361.553 242.398H283.6V164.446L361.553 242.398ZM283.6 243.598H362.753L442.151 322.996L362.753 402.394H283.6V243.598ZM522.402 404.446V482.398H444.449L522.402 404.446ZM443.249 483.598H522.402V642.4H443.249L443.003 642.154L363.851 563.002L443.249 483.604V483.598ZM522.402 643.6V721.552L444.449 643.6H522.402ZM443.003 643.846L521.556 722.398H364.451L443.003 643.846ZM284.446 802.402L363.245 723.604H521.55L442.751 802.402H284.446ZM522.402 724.45V882.4H364.451L522.402 724.45ZM442.403 883.6V962.752L363.005 1042.15L283.6 962.752V883.6H442.403ZM283.6 964.45L362.399 1043.25V1202.75L283.6 1281.55V964.444V964.45ZM361.553 1362.4H283.6V1284.45L361.553 1362.4ZM283.6 1523.6H361.553L283.6 1601.55V1523.6ZM363.251 1523.6H681.553L602.755 1602.4H284.446L363.245 1523.6H363.251ZM604.453 1602.4L762.404 1444.45V1602.4H604.453ZM843.009 1522.15L763.856 1443L763.61 1442.75V1363.6H842.763L843.009 1363.85L843.255 1363.6H922.407V1442.75L843.009 1522.15ZM923.607 1363.6H1001.56L923.607 1441.55V1363.6ZM1003.61 1443.6H1082.76L1162.16 1523L1082.76 1602.39H1003.61V1443.59V1443.6ZM1084.46 1602.4L1163.26 1523.6H1322.76L1401.56 1602.4H1084.45H1084.46ZM1404.46 1602.4L1482.41 1524.45V1602.4H1404.46ZM1483.61 1363.6H1561.56L1483.61 1441.55V1363.6ZM1483.86 1443L1562.41 1364.45V1521.55L1483.86 1443ZM1642.41 1601.55L1563.61 1522.75V1364.45L1642.41 1443.24V1601.55ZM1722.41 1521.55L1564.45 1363.6H1722.41V1521.55ZM1722.41 1361.55L1644.45 1283.6H1722.41V1361.55ZM1643.25 1282.4L1563.85 1203L1643.25 1123.61H1722.41V1282.41H1643.25V1282.4ZM1722.41 1122.4H1644.45L1722.41 1044.45V1122.4ZM1564.45 883.6H1722.41V1041.55L1564.45 883.6ZM1483.6 881.548V803.596H1561.56L1483.6 881.548ZM1562.76 802.396H1483.6V643.594H1562.76L1563 643.84L1642.16 722.992L1562.76 802.39V802.396ZM1483.6 642.394V564.442L1561.56 642.394H1483.6ZM1563 642.148L1484.45 563.596H1641.56L1563 642.148ZM1721.55 483.598L1642.76 562.396H1484.45L1563.25 483.598H1721.55ZM1483.6 561.55V403.6H1641.55L1483.6 561.55Z" fill="url(#paint0_radial_269_1813)"/>
<defs>
<radialGradient id="paint0_radial_269_1813" cx="0" cy="0" r="1" gradientUnits="userSpaceOnUse" gradientTransform="translate(981.682 883) scale(705.1 705.094)">
<stop stop-color="#5F67F9" stop-opacity="0"/>
<stop offset="1" stop-color="#5F67F9" stop-opacity="0.14"/>
</radialGradient>
</defs>
</svg>
